<?xml version="1.0" encoding="UTF-8"?>
<svg id="Layer_1" data-name="Layer 1" xmlns="http://www.w3.org/2000/svg" viewBox="0 0 93.25 93.24">
  <defs>
    <style>
      .cls-1 {
        fill: #f48462;
      }

      .cls-2 {
        fill: #6876aa;
      }

      .cls-3 {
        fill: #e8e1ef;
      }

      .cls-4 {
        fill: #f7b369;
      }
    </style>
  </defs>
  <path class="cls-3" d="M93.25,46.62c0,8.37-2.21,16.23-6.08,23.03-1.1,1.93-2.34,3.78-3.7,5.53-2,2.58-4.26,4.94-6.75,7.04-.07.06-.14.12-.21.17-3.02,2.53-6.36,4.68-9.96,6.39-1.62.77-3.3,1.45-5.02,2.03-4.68,1.57-9.69,2.43-14.9,2.43-4.47,0-8.79-.63-12.88-1.81-3.6-1.03-7.02-2.48-10.2-4.3-4.39-2.5-8.34-5.7-11.68-9.44-.2-.22-.39-.44-.58-.66-.31-.35-.61-.71-.9-1.07-1.38-1.7-2.64-3.5-3.77-5.38C2.42,63.57,0,55.38,0,46.62,0,20.87,20.88,0,46.63,0s46.62,20.87,46.62,46.62Z"/>
  <path d="M39.43,26.7s-8.08-6.46-4.4-11.82c3.68-5.36,11.57.09,11.57.09,0,0,3.07-3.07,7.42-.59s4.84,8.56,4.84,8.56c0,0,4.43-.1,4.68,5.29s-5.55,10.19-5.55,10.19l-18.57-11.72Z"/>
  <path class="cls-2" d="M76.51,82.39c-3.02,2.53-6.36,4.68-9.96,6.39-1.62.77-3.3,1.45-5.02,2.03-4.68,1.57-9.69,2.43-14.9,2.43-4.47,0-8.79-.63-12.88-1.81-3.6-1.03-7.02-2.48-10.2-4.3l-.55-31.16c12.34-8.66,24.31-6.5,24.31-6.5,0,0,15.72-1.79,23.93,5.72,1.2,1.1,2.22,2.36,3.01,3.85,1.31,2.45,1.96,12.29,2.26,23.35Z"/>
  <path class="cls-1" d="M53.62,41.39l.1,10.27s-1.82,2.97-7.83,3.52c-4.47.41-6.05-.59-6.05-.59l.57-5.21.56-5.08,10.83-2.49,1.82-.42Z"/>
  <path d="M51.8,41.81c-.02.28-.13.61-.29.99-2.25,5.15-8.52,6.32-11.1,6.58l.56-5.08,10.83-2.49Z"/>
  <path class="cls-1" d="M38.46,20.92s-5.26,12.93-3.07,20.06c2.2,7.13,8.71,5.84,12.59,4.35,3.88-1.49,5.64-3.94,5.64-3.94,0,0,3.69,1.15,6.05-2.32,2.36-3.46.75-7.33-1.36-8.17-2.11-.84-4.56.73-4.56.73l1.85-3.77s-8.67-18.68-17.15-6.95Z"/>
  <path d="M54.19,37.27c-.15,0-.3-.07-.4-.2-.16-.22-.12-.54.11-.7l4.59-3.37c.22-.16.53-.12.7.11.16.22.12.54-.11.7l-4.59,3.37c-.09.07-.19.1-.3.1Z"/>
  <path d="M58.41,37.17s-.08,0-.12-.01l-3.05-.75c-.27-.07-.43-.34-.37-.61.07-.27.34-.43.61-.37l3.05.75c.27.07.43.34.37.61-.06.23-.26.38-.49.38Z"/>
  <path d="M47.11,26.34c-.06,0-.11,0-.17-.03-.76-.28-2.94-.4-3.72-.42-.28,0-.49-.24-.48-.52,0-.28.19-.49.52-.48.3,0,2.98.1,4.03.48.26.09.39.38.3.64-.07.2-.27.33-.47.33Z"/>
  <path d="M37.14,25.96c-.24,0-.45-.18-.49-.42-.04-.27.14-.53.42-.57,1.35-.21,1.77-.2,1.84-.19.27.02.48.27.45.54-.02.27-.26.47-.53.46-.03,0-.39-.01-1.6.18-.03,0-.05,0-.08,0Z"/>
  <path d="M39.76,37.38c-.21,0-.41-.14-.48-.35-1.29-4.16.86-7.16.95-7.28.16-.22.47-.27.7-.11.22.16.27.47.11.7-.02.03-1.93,2.73-.8,6.4.08.26-.07.54-.33.62-.05.02-.1.02-.15.02Z"/>
  <path d="M37.24,30.89s-.08,0-.13-.02c-.27-.07-.43-.34-.36-.61l.62-2.36c.07-.27.34-.42.61-.36.27.07.43.34.36.61l-.62,2.36c-.06.22-.26.37-.48.37Z"/>
  <path d="M43.74,30.96s-.08,0-.13-.02c-.27-.07-.43-.34-.36-.61l.62-2.36c.07-.27.34-.42.61-.36.27.07.43.34.36.61l-.62,2.36c-.06.22-.26.37-.48.37Z"/>
  <path d="M37.4,23.83s1.09-2.08,3.66-2.12c2.56-.04,4.08,1.75,4.08,1.75,0,0-1.08,4.33,2.43,6.58,3.51,2.26,6.2,1.59,6.2,1.59l2.52-.93,1.82-3.71-7.39-7.81-9.51-4.9-4.78,4.43.99,5.12Z"/>
  <path d="M41.73,39.78c-.12,0-.2,0-.22,0-.28-.02-.48-.27-.46-.54.02-.27.29-.48.54-.46.1,0,2.05.13,2.87-1.65.12-.25.41-.36.66-.25.25.11.36.41.25.66-.94,2.06-2.97,2.24-3.64,2.24Z"/>
  <path class="cls-4" d="M40.41,49.39s-2.12,2.25-3.38,6.39c-.72,2.35-.54,5.82-.05,5.82.49,0,4.19-5.72,6.55-6.07s4.33,6.5,5.34,6.74c1.01.24,4.92-2.46,6.31-6.36,1.39-3.9-1.1-6.42-1.1-6.42,0,0-12.18,9.24-13.67-.11Z"/>
  <path class="cls-2" d="M33.75,91.43c-3.6-1.03-7.02-2.48-10.2-4.3-4.39-2.5-8.34-5.7-11.68-9.44-.2-.22-.39-.44-.58-.66.44-1.35.92-2.7,1.45-4.01,4.81-11.98,10.26-17.05,10.26-17.05l10.75,35.46Z"/>
  <path class="cls-2" d="M83.47,75.18c-2,2.58-4.26,4.94-6.75,7.04-.07.06-.14.12-.21.17-3.02,2.53-6.36,4.68-9.96,6.39l4.69-33.59s6.58,5.07,12.23,19.99Z"/>
  <path class="cls-4" d="M22.9,85.24s-.04,0-.05,0c-.28-.03-.47-.27-.45-.55l.95-9.25c.03-.28.29-.48.55-.45.28.03.47.27.45.55l-.95,9.25c-.03.26-.24.45-.5.45Z"/>
</svg>