<?xml version="1.0" encoding="UTF-8"?>
<svg id="Layer_1" data-name="Layer 1" xmlns="http://www.w3.org/2000/svg" viewBox="0 0 2258.62 405.44">
  <defs>
    <style>
      .cls-1 {
        fill: #fff;
      }
    </style>
  </defs>
  <path class="cls-1" d="M637.51,12.11c-129.76,99.81-259.51,199.62-389.27,299.43,49.23-.59,98.47-1.12,147.71-1.6-29.21,26.96-58.42,53.92-87.63,80.88-99.89.92-199.78,2.05-299.66,3.38C195.95,267.21,383.25,140.23,570.55,13.24c22.32-.4,44.64-.77,66.97-1.14Z"/>
  <path class="cls-1" d="M889.55,8.97c-17.11,26.93-34.22,53.87-51.33,80.8-34.53.26-69.07.55-103.6.88-18.62,21.62-37.24,43.25-55.86,64.87,36.93-.32,73.85-.6,110.78-.85-16.81,25.87-33.61,51.74-50.42,77.61-42.4.25-84.81.54-127.21.87-21.67,25.17-43.35,50.33-65.02,75.5,52.89-.38,105.78-.7,158.68-.97-16.88,26.93-33.76,53.87-50.64,80.8-103.98.46-207.96,1.13-311.94,2.02,131.42-126.62,262.84-253.24,394.27-379.86,50.77-.66,101.54-1.22,152.3-1.69Z"/>
  <path class="cls-1" d="M1014.49,8.07c15-.02,32.26,3.5,42.48,15.48,10.06,11.8,16.86,26.98,20.29,41.97,4.51,19.71,6.09,40.55,5.75,60.67-.4,23.63-1.88,47.92-3.98,71.61-2.12,23.89-4.92,48.38-9.39,71.61-4.07,21.17-11.35,42.57-24.01,60.68-13.06,18.69-32.15,32.65-52.76,42.03-28.97,13.18-62.41,15.22-93.87,15.72-64.99.06-129.98.21-194.97.44,71.08-126.52,142.17-253.04,213.25-379.56,32.41-.26,64.81-.48,97.22-.66ZM889.92,316.62c9.42.22,20.38-.93,29.36-4.03,7.73-2.68,14.77-8.28,20.7-16.78,7.67-11,12.5-23.68,16.89-36.18,7.03-20.01,12.66-41.08,18.27-61.71,5.55-20.41,11.17-41.13,15.56-61.7,2.52-11.82,5.06-24,4.99-36.16-.05-8.44-2.03-14.08-5.81-16.72-3.79-2.64-9.47-3.95-17.18-3.91-6.33.03-9.5.04-15.84.07-30.38,79.06-60.76,158.11-91.14,237.17,9.68-.02,14.52-.03,24.2-.05Z"/>
  <path class="cls-1" d="M1373.64,182.05c30.49,69.18,60.97,138.37,91.46,207.55-30.33-.21-60.65-.41-90.98-.58-4.57-11.21-9.09-22.43-13.59-33.67-.55,0-.83,0-1.38,0-1.55,8.17-5.43,14.9-11.67,20.2-6.24,5.3-14.05,9.23-23.16,11.88-9.73,2.82-20.41,4.68-30.51,5.45-11.43.87-22.91,1.5-34.22,1.45-27.3-.12-56.34-2.1-82.3-12.82-18.05-7.45-34.96-20.53-44.55-37.68-10.63-19.01-14.93-40.54-16.75-61.83-2.36-27.61-2.02-56.28-1.25-84.16.78-28.18,2.65-56.93,7.02-84.69,3.3-21.03,8.17-42.22,17.04-61.81,6.5-14.35,15.86-28.82,28.93-38.14,13.16-9.38,30.23-13.83,46-13.09,12.34.58,22.68,2.65,34.12,6.96,12.67,4.78,24.02,13.55,34.25,22.49,13.13,11.48,24.38,25.66,34.82,39.89,13.34,18.19,23.7,38.56,33.16,59.13-28.48-.13-56.96-.24-85.44-.32-4.34-15.13-9.24-30.59-16.32-44.33-4.34-8.41-11.97-16.56-22.25-16.58-6.39-.01-11.05,1.95-14.13,5.85-3.08,3.91-4.76,10.88-4.98,20.8-.3,13.45,1.1,26.96,2.63,40.27,2.44,21.19,5.72,42.59,9.03,63.74,3.33,21.26,6.71,42.83,11.2,63.74,2.92,13.62,6.18,27.43,11.83,40.29,4.37,9.95,9.79,16.92,16,20.85,6.22,3.93,14.06,5.92,23.37,5.96,6.65.03,12.29-1.01,16.86-3.12,4.55-2.11,7.85-6.1,9.79-11.95,1.94-5.85,2.47-14.08,1.45-24.52-1.33-13.67-4.83-27-8.31-40.3-12.96-.06-25.93-.11-38.89-.15-4.79-22.41-9.58-44.83-14.37-67.24,42.03.13,84.06.3,126.09.52Z"/>
  <path class="cls-1" d="M1476.47,8.57c24.76,27.28,49.52,54.57,74.28,81.85-34.53-.31-69.07-.59-103.6-.83l44.96,65.47c36.93.29,73.85.61,110.78.98,23.41,26.2,46.83,52.4,70.24,78.6-42.4-.45-84.8-.86-127.21-1.23,17.45,25.4,34.89,50.8,52.34,76.2,52.89.49,105.78,1.04,158.67,1.65,24.99,27.29,49.98,54.57,74.98,81.86-103.97-1.26-207.95-2.3-311.93-3.12-65.27-127.42-130.55-254.84-195.82-382.26,50.77.18,101.54.45,152.31.83Z"/>
  <path class="cls-1" d="M1608.76,9.82c14.72.25,28.89,3.68,42.61,7.98,17.71,5.55,35.16,13.54,52.04,21.75,20.37,9.91,40.34,21.32,59.65,33.09,21.4,13.04,42.71,26.99,63.21,41.41,26.18,18.41,54.27,39.99,74.93,62.87,11.07,12.26,7.32,26.14-9.18,28.58.57.43.86.65,1.43,1.09,29.82,2.98,58.79,13.01,85.41,26.33,35.27,17.64,68.86,39.09,101.29,61.7,15.69,11.06,31.38,22.12,47.07,33.18,7.21,5.08,14.66,10.33,22.38,15.78,7.72,5.44,15.27,10.61,22.67,15.52,7.4,4.9,14.41,9.36,21.01,13.36,6.61,4.01,12.21,7.23,16.68,9.31,4.85,2.26,9.87,4.33,14.62,6.36,4.75,2.03,10.59,3.99,17.51,5.88,3.15,2.18,4.72,3.27,7.87,5.44-47.43-.85-94.87-1.66-142.3-2.43-10.31-5.66-20.36-11.57-30.04-18.01-9.85-6.55-19.73-13.59-29.31-20.65-8.74-6.45-17.5-13.1-26.11-19.8-8.12-6.32-14.67-11.47-19.65-15.45-10.84-8.67-21.69-17.34-32.53-26.02-11.73-9.27-23.55-18.66-35.7-27.13-8.79-6.12-17.86-12.19-27.47-17.16-8.07-4.18-15.32-7.14-21.74-8.83-6.43-1.69-12.88-2.58-19.42-2.67-9.42-.13-18.85-.26-28.28-.39,59.3,51.56,118.6,103.13,177.9,154.69-44.77-.66-89.53-1.28-134.3-1.86-125.6-128.32-251.21-256.63-376.81-384.95,34.86.3,69.71.64,104.57,1.03ZM1778.01,173.01c13.68.18,18.77-4.2,14.51-12.32-7.01-13.38-20.65-23.73-32.32-33.2-15.9-12.91-33.3-25.41-51.64-34.79-11.82-6.05-25.25-10.23-38.64-10.61-6.16-.07-9.24-.11-15.41-.18,34.83,30.29,69.67,60.58,104.5,90.87,7.59.1,11.39.15,18.99.25Z"/>
</svg>