<?xml version="1.0" encoding="UTF-8"?>
<svg id="Layer_1" data-name="Layer 1" xmlns="http://www.w3.org/2000/svg" viewBox="0 0 1829.46 407.01">
  <defs>
    <style>
      .cls-1 {
        fill: #fff;
      }
    </style>
  </defs>
  <path class="cls-1" d="M352.98,12.23c80.89,85.67,158.69,174.09,232.65,265.81.38,0,.56,0,.94,0-50.71-87.28-98.4-176.18-142.7-266.88,43.63-.48,87.26-.91,130.89-1.3,29.68,133.29,73.98,262.18,130.02,386.64-24.21.12-48.43.26-72.64.43-75.66-88.59-154.31-174.47-235.48-258.03-.48,0-.73,0-1.21.02,60.62,88.58,124.74,174.59,191.82,258.38-24.21.22-48.43.46-72.64.73C352,263.53,182.75,137.42,9.06,17.6c43.62-.81,87.25-1.57,130.87-2.29,101.98,85.8,202.05,173.78,299.87,264.29.38,0,.56,0,.94-.01C367.43,193.67,297.24,105.25,230.82,13.9c40.72-.6,81.44-1.15,122.16-1.67Z"/>
  <path class="cls-1" d="M642.75,110.62c-3.69-20.57-5.29-42.76,3.88-62.51,8.15-17.55,26.28-29.46,44.06-35.63,27.17-9.43,56.67-11.5,84.84-11.66,29.53-.16,60.03,2.05,88.87,10.74,21.59,6.51,42.15,17.83,56.86,35.18,14.91,17.59,22.91,39.98,26.53,62.52,4.93,30.69,4.3,62.14,2.38,92.79-1.93,30.9-5.27,62.5-11.7,92.79-4.5,21.21-10.54,43.03-20.05,62.55-6.47,13.29-16.12,26.65-28.77,34.48-12.64,7.83-26.88,9.76-41.36,10.27-15.24.54-31.17-3.56-45.1-10.3-16.34-7.91-29.59-21.18-41.28-34.36-16.52-18.63-30.14-40.49-42.7-62.22-17.07-29.56-31.91-60.95-45.27-92.29-12.63-29.62-25.53-60.84-31.19-92.38ZM794.57,267.29c3.9,13.79,8.03,27.69,13.57,40.97,4.22,10.12,8.54,17.18,12.88,21.15,4.35,3.97,9.35,5.96,15.15,5.95,5.8,0,10.08-2,12.99-5.99,2.9-3.98,4.66-11.09,5.2-21.2.73-13.66-.22-27.45-1.3-41.03-1.71-21.58-4.29-43.38-6.89-64.94-2.62-21.64-5.24-43.6-9.06-64.93-2.47-13.83-5.24-27.88-10.51-41.01-4.05-10.09-9.26-17.18-15.38-21.14-6.12-3.96-13.94-5.92-23.3-5.87-9.37.04-16.46,2.08-21.14,6.08-4.68,4.02-7.32,11.15-7.7,21.24-.51,13.77,1.88,27.56,4.36,41,3.99,21.6,9.28,43.38,14.47,64.86,5.23,21.65,10.6,43.49,16.64,64.85Z"/>
  <path class="cls-1" d="M1222.24,7.8c20.83.41,42.81.92,61.94,7.83,12.17,4.4,24.39,10.23,32.04,21.72,6.77,10.17,6.37,22.36,4.6,33.11-2.34,14.28-9.96,28.71-17.43,41.49-13.75,23.53-31.77,45.6-53.69,63.17-19.21,15.4-42.08,25.7-66.51,29.16-.21.44-.31.65-.52,1.09,14.98.85,35.05,7.87,34.94,25.92-.13,22-12.84,43.24-23.24,61.72-6.48,11.09-12.97,22.18-19.45,33.27-2.98,5.1-6.06,10.36-9.25,15.82-3.19,5.45-6.08,10.64-8.69,15.55-2.61,4.91-4.84,9.38-6.68,13.37-1.85,4.01-3.19,7.2-3.59,9.29-.4,2.06-.57,4.3-.79,6.3-.22,2.01.2,3.94,1.26,5.78-1.34,2.18-2.01,3.27-3.34,5.45-23.39-.25-46.78-.48-70.18-.68.51-5.1,1.75-11.11,3.76-18.03,2.01-6.91,4.21-13.82,6.66-20.73,2.44-6.9,4.9-13.55,7.36-19.91,2.46-6.35,4.51-11.54,6.14-15.54,3.56-8.72,7.13-17.45,10.69-26.17,3.7-8.82,7.17-18.04,9.7-27.27,2-7.27,2.6-13.01,1.78-17.2-.82-4.18-2.87-7.12-6.09-8.77-3.23-1.65-7.74-2.49-13.46-2.52-9.89-.04-14.84-.06-24.73-.09-15.78,51.96-31.57,103.93-47.35,155.89-22.08-.15-44.15-.27-66.23-.37,16.4-129.6,32.79-259.2,49.19-388.8,70.39-.08,140.79-.03,211.18.13ZM1117.41,172.34c13.68-.09,28.02-4.01,38.71-12.7,10.83-8.8,20.05-20.66,24.93-33.49,3.95-10.41,9.83-25.24,2.44-34.94-7.61-9.98-23.54-9.81-35.68-10.46-9.47-.02-14.2-.03-23.67-.05-9.27,30.52-18.54,61.05-27.82,91.57,8.44.02,12.66.03,21.1.06Z"/>
  <path class="cls-1" d="M1558.62,9.61c-42.04,49.8-84.08,99.6-126.12,149.41.47,0,.7,0,1.17.01,73.57-52.56,149.38-101.72,226.75-148.48,47.99.49,95.99,1.03,143.98,1.63-102.16,52.37-202.55,108-300.12,168.54-38.54,80.09-88.83,152.56-146.13,220.32-25.16-.46-50.32-.89-75.48-1.3,30.07-43.7,57.2-88.86,80.85-136.35-15.62,10.69-31.14,21.52-46.55,32.5l-86.99,103.06c-22.07-.3-44.15-.59-66.23-.85,86.54-129.82,173.07-259.63,259.61-389.45,45.09.27,90.17.59,135.26.96Z"/>
</svg>